<svg xmlns="http://www.w3.org/2000/svg" xmlns:xlink="http://www.w3.org/1999/xlink" width="500" zoomAndPan="magnify" viewBox="0 0 375 149.999998" height="200" preserveAspectRatio="xMidYMid meet" version="1.0"><defs><g/><clipPath id="7d1758fabb"><path d="M 6.804688 28.5 L 140.304688 28.5 L 140.304688 121.5 L 6.804688 121.5 Z M 6.804688 28.5 " clip-rule="nonzero"/></clipPath></defs><g clip-path="url(#7d1758fabb)"><path fill="#cb6ce6" d="M 6.800781 83.199219 C 6.800781 68.3125 17.28125 62.917969 31.269531 59.90625 C 33.898438 42.15625 49.195312 28.535156 67.679688 28.535156 C 78.75 28.535156 88.679688 33.421875 95.425781 41.15625 C 98.464844 40.164062 101.710938 39.625 105.082031 39.625 C 122.21875 39.625 136.109375 53.515625 136.109375 70.652344 C 136.109375 72.160156 136 73.644531 135.792969 75.09375 C 138.683594 79.730469 140.359375 85.199219 140.359375 91.066406 C 140.359375 107.585938 126.757812 121.441406 110.128906 121.269531 L 85.039062 121.269531 C 65.617188 121.269531 53.792969 107.59375 70.710938 92.644531 L 79.066406 85.265625 L 93.730469 114.679688 L 96.097656 112.710938 C 97.3125 111.703125 96.917969 109.625 96.480469 107.992188 L 91.519531 89.132812 C 91.570312 89.09375 91.621094 89.054688 91.664062 89.007812 L 97.519531 83.152344 C 98.09375 82.578125 98.09375 81.644531 97.519531 81.070312 L 95.265625 78.816406 C 94.691406 78.242188 93.757812 78.242188 93.183594 78.816406 L 89.71875 82.28125 L 88.453125 77.464844 L 101.332031 66.765625 C 104.242188 64.34375 105.78125 59.203125 102.136719 55.425781 C 98.359375 51.785156 93.222656 53.320312 90.800781 56.230469 L 80.101562 69.113281 L 75.285156 67.847656 L 78.75 64.378906 C 79.324219 63.808594 79.320312 62.875 78.75 62.300781 L 76.496094 60.042969 C 75.921875 59.472656 74.984375 59.472656 74.414062 60.042969 L 68.558594 65.898438 C 68.511719 65.945312 68.46875 65.996094 68.429688 66.042969 L 49.574219 61.085938 C 47.941406 60.648438 45.863281 60.25 44.855469 61.464844 L 42.886719 63.832031 L 72.300781 78.5 L 64.792969 87 C 48.609375 105.3125 6.800781 116.980469 6.800781 83.199219 " fill-opacity="1" fill-rule="evenodd"/></g><g fill="#cb6ce6" fill-opacity="1"><g transform="translate(153.990786, 98.818901)"><g><path d="M 20.140625 1.265625 C 15.691406 1.265625 12.320312 0.144531 10.03125 -2.09375 C 7.75 -4.34375 6.609375 -7.523438 6.609375 -11.640625 L 6.609375 -24.859375 L 1.265625 -24.859375 L 1.265625 -31.46875 L 6.609375 -31.46875 L 9.75 -40.28125 L 14.796875 -40.28125 L 14.796875 -31.46875 L 24.546875 -31.46875 L 24.546875 -24.859375 L 14.796875 -24.859375 L 14.796875 -11.640625 C 14.796875 -9.753906 15.316406 -8.285156 16.359375 -7.234375 C 17.410156 -6.191406 18.878906 -5.671875 20.765625 -5.671875 C 21.484375 -5.671875 22.125 -5.734375 22.6875 -5.859375 C 23.25 -5.984375 23.742188 -6.128906 24.171875 -6.296875 C 24.628906 -6.460938 25.066406 -6.671875 25.484375 -6.921875 L 27.375 -0.625 C 26.664062 -0.25 25.929688 0.0625 25.171875 0.3125 C 24.503906 0.5625 23.738281 0.78125 22.875 0.96875 C 22.019531 1.164062 21.109375 1.265625 20.140625 1.265625 Z M 20.140625 1.265625 "/></g></g></g><g fill="#cb6ce6" fill-opacity="1"><g transform="translate(179.543798, 98.818901)"><g><path d="M 4.71875 -29.890625 C 5.894531 -30.398438 7.175781 -30.863281 8.5625 -31.28125 C 9.738281 -31.613281 11.101562 -31.9375 12.65625 -32.25 C 14.207031 -32.570312 15.863281 -32.734375 17.625 -32.734375 C 19.132812 -32.734375 20.539062 -32.601562 21.84375 -32.34375 C 23.144531 -32.09375 24.273438 -31.800781 25.234375 -31.46875 C 26.328125 -31.09375 27.359375 -30.671875 28.328125 -30.203125 L 26.125 -23.921875 C 25.488281 -24.253906 24.773438 -24.566406 23.984375 -24.859375 C 23.265625 -25.066406 22.421875 -25.273438 21.453125 -25.484375 C 20.492188 -25.691406 19.425781 -25.796875 18.25 -25.796875 C 17.539062 -25.796875 16.867188 -25.742188 16.234375 -25.640625 C 15.609375 -25.535156 15.039062 -25.421875 14.53125 -25.296875 C 13.945312 -25.128906 13.40625 -24.984375 12.90625 -24.859375 L 12.90625 0 L 4.71875 0 Z M 4.71875 -29.890625 "/></g></g></g><g fill="#cb6ce6" fill-opacity="1"><g transform="translate(205.41151, 98.818901)"><g><path d="M 17.9375 1.265625 C 15.164062 1.265625 12.789062 0.976562 10.8125 0.40625 C 8.84375 -0.15625 7.21875 -0.914062 5.9375 -1.875 C 4.664062 -2.84375 3.722656 -4 3.109375 -5.34375 C 2.503906 -6.6875 2.203125 -8.15625 2.203125 -9.75 C 2.203125 -11.300781 2.503906 -12.757812 3.109375 -14.125 C 3.722656 -15.488281 4.664062 -16.648438 5.9375 -17.609375 C 7.21875 -18.578125 8.84375 -19.34375 10.8125 -19.90625 C 12.789062 -20.476562 15.164062 -20.765625 17.9375 -20.765625 C 18.945312 -20.765625 19.878906 -20.734375 20.734375 -20.671875 C 21.597656 -20.609375 22.363281 -20.535156 23.03125 -20.453125 C 23.789062 -20.328125 24.503906 -20.222656 25.171875 -20.140625 C 25.171875 -21.898438 24.59375 -23.28125 23.4375 -24.28125 C 22.289062 -25.289062 20.457031 -25.796875 17.9375 -25.796875 C 16.675781 -25.796875 15.507812 -25.679688 14.4375 -25.453125 C 13.375 -25.222656 12.441406 -24.960938 11.640625 -24.671875 C 10.722656 -24.335938 9.882812 -23.976562 9.125 -23.59375 L 5.984375 -29.265625 C 6.859375 -29.890625 7.90625 -30.457031 9.125 -30.96875 C 10.132812 -31.425781 11.382812 -31.832031 12.875 -32.1875 C 14.363281 -32.550781 16.050781 -32.734375 17.9375 -32.734375 C 23.007812 -32.734375 26.847656 -31.492188 29.453125 -29.015625 C 32.054688 -26.535156 33.359375 -23.15625 33.359375 -18.875 L 33.359375 -0.9375 C 31.929688 -0.519531 30.378906 -0.144531 28.703125 0.1875 C 27.273438 0.476562 25.632812 0.726562 23.78125 0.9375 C 21.9375 1.15625 19.988281 1.265625 17.9375 1.265625 Z M 17.9375 -5.671875 C 18.90625 -5.671875 19.816406 -5.710938 20.671875 -5.796875 C 21.535156 -5.878906 22.300781 -5.984375 22.96875 -6.109375 C 23.726562 -6.273438 24.460938 -6.441406 25.171875 -6.609375 L 25.171875 -13.21875 L 22.96875 -13.53125 C 22.300781 -13.613281 21.535156 -13.6875 20.671875 -13.75 C 19.816406 -13.8125 18.90625 -13.84375 17.9375 -13.84375 C 15.25 -13.84375 13.367188 -13.429688 12.296875 -12.609375 C 11.234375 -11.796875 10.703125 -10.84375 10.703125 -9.75 C 10.703125 -8.664062 11.234375 -7.710938 12.296875 -6.890625 C 13.367188 -6.078125 15.25 -5.671875 17.9375 -5.671875 Z M 17.9375 -5.671875 "/></g></g></g><g fill="#cb6ce6" fill-opacity="1"><g transform="translate(240.090593, 98.818901)"><g><path d="M 0.625 -31.46875 L 9.4375 -31.46875 L 18.25 -8.1875 L 18.5625 -8.1875 L 27.375 -31.46875 L 36.1875 -31.46875 L 23.28125 0 L 13.53125 0 Z M 0.625 -31.46875 "/></g></g></g><g fill="#cb6ce6" fill-opacity="1"><g transform="translate(273.82561, 98.818901)"><g><path d="M 20.765625 1.265625 C 17.992188 1.265625 15.484375 0.832031 13.234375 -0.03125 C 10.992188 -0.894531 9.078125 -2.082031 7.484375 -3.59375 C 5.890625 -5.101562 4.660156 -6.894531 3.796875 -8.96875 C 2.941406 -11.039062 2.515625 -13.296875 2.515625 -15.734375 C 2.515625 -18.253906 2.921875 -20.550781 3.734375 -22.625 C 4.554688 -24.695312 5.710938 -26.488281 7.203125 -28 C 8.691406 -29.507812 10.453125 -30.675781 12.484375 -31.5 C 14.523438 -32.320312 16.765625 -32.734375 19.203125 -32.734375 C 21.628906 -32.734375 23.859375 -32.320312 25.890625 -31.5 C 27.929688 -30.675781 29.695312 -29.507812 31.1875 -28 C 32.675781 -26.488281 33.828125 -24.695312 34.640625 -22.625 C 35.460938 -20.550781 35.875 -18.253906 35.875 -15.734375 L 31.78125 -11.953125 L 11.265625 -11.953125 C 11.597656 -11.078125 12.023438 -10.257812 12.546875 -9.5 C 13.078125 -8.75 13.75 -8.085938 14.5625 -7.515625 C 15.382812 -6.953125 16.351562 -6.503906 17.46875 -6.171875 C 18.582031 -5.835938 19.894531 -5.671875 21.40625 -5.671875 C 22.65625 -5.671875 23.785156 -5.796875 24.796875 -6.046875 C 25.804688 -6.296875 26.664062 -6.585938 27.375 -6.921875 C 28.175781 -7.296875 28.910156 -7.71875 29.578125 -8.1875 L 32.734375 -2.515625 C 31.765625 -1.804688 30.671875 -1.175781 29.453125 -0.625 C 28.398438 -0.164062 27.140625 0.257812 25.671875 0.65625 C 24.203125 1.0625 22.566406 1.265625 20.765625 1.265625 Z M 27.0625 -18.5625 C 26.726562 -20.625 25.847656 -22.34375 24.421875 -23.71875 C 22.992188 -25.101562 21.253906 -25.796875 19.203125 -25.796875 C 17.140625 -25.796875 15.382812 -25.101562 13.9375 -23.71875 C 12.488281 -22.34375 11.597656 -20.625 11.265625 -18.5625 Z M 27.0625 -18.5625 "/></g></g></g><g fill="#cb6ce6" fill-opacity="1"><g transform="translate(308.819398, 98.818901)"><g><path d="M 6.609375 -37.453125 L 1.890625 -37.453125 L 1.890625 -44.0625 L 14.796875 -44.0625 L 14.796875 0 L 6.609375 0 Z M 6.609375 -37.453125 "/></g></g></g><g fill="#cb6ce6" fill-opacity="1"><g transform="translate(325.561031, 98.818901)"><g><path d="M 18.5625 13.21875 C 16.675781 13.21875 14.976562 13.015625 13.46875 12.609375 C 11.957031 12.210938 10.65625 11.785156 9.5625 11.328125 C 8.300781 10.785156 7.210938 10.15625 6.296875 9.4375 L 9.4375 3.78125 C 10.195312 4.238281 11.054688 4.65625 12.015625 5.03125 C 12.859375 5.363281 13.820312 5.65625 14.90625 5.90625 C 16 6.164062 17.21875 6.296875 18.5625 6.296875 C 20.707031 6.296875 22.40625 5.9375 23.65625 5.21875 C 24.914062 4.507812 25.90625 3.710938 26.625 2.828125 C 27.414062 1.828125 27.984375 0.675781 28.328125 -0.625 L 28.328125 -1.265625 C 27.566406 -1.128906 26.8125 -1.019531 26.0625 -0.9375 C 25.382812 -0.851562 24.632812 -0.78125 23.8125 -0.71875 C 23 -0.65625 22.195312 -0.625 21.40625 -0.625 C 18.71875 -0.625 16.332031 -0.976562 14.25 -1.6875 C 12.175781 -2.40625 10.4375 -3.394531 9.03125 -4.65625 C 7.625 -5.914062 6.550781 -7.40625 5.8125 -9.125 C 5.082031 -10.84375 4.71875 -12.734375 4.71875 -14.796875 L 4.71875 -31.46875 L 12.90625 -31.46875 L 12.90625 -14.796875 C 12.90625 -12.734375 13.648438 -11.007812 15.140625 -9.625 C 16.628906 -8.238281 18.71875 -7.546875 21.40625 -7.546875 C 22.238281 -7.546875 23.070312 -7.585938 23.90625 -7.671875 C 24.75 -7.753906 25.507812 -7.863281 26.1875 -8 C 26.9375 -8.164062 27.648438 -8.332031 28.328125 -8.5 L 28.328125 -31.46875 L 36.5 -31.46875 L 36.5 -1.265625 C 36.5 0.628906 36.097656 2.445312 35.296875 4.1875 C 34.503906 5.925781 33.332031 7.46875 31.78125 8.8125 C 30.226562 10.15625 28.335938 11.222656 26.109375 12.015625 C 23.890625 12.816406 21.375 13.21875 18.5625 13.21875 Z M 18.5625 13.21875 "/></g></g></g></svg>